<mxfile host="app.diagrams.net" agent="Mozilla/5.0 (Macintosh; Intel Mac OS X 10_15_7) AppleWebKit/537.36 (KHTML, like Gecko) Chrome/133.0.0.0 Safari/537.36" version="26.0.10">
  <diagram name="Page-1" id="hd4ncZOFL1vQO30ndF3W">
    <mxGraphModel dx="1718" dy="1613" grid="1" gridSize="10" guides="1" tooltips="1" connect="1" arrows="1" fold="1" page="1" pageScale="1" pageWidth="827" pageHeight="1169" math="0" shadow="0">
      <root>
        <mxCell id="0" />
        <mxCell id="1" parent="0" />
        <mxCell id="maTFwBEckjJLN8zS17zf-1" value="User" style="ellipse;aspect=fixed;strokeWidth=2;whiteSpace=wrap;" vertex="1" parent="1">
          <mxGeometry x="1449" y="20" width="47" height="47" as="geometry" />
        </mxCell>
        <mxCell id="maTFwBEckjJLN8zS17zf-2" value="Input/Output Interface" style="whiteSpace=wrap;strokeWidth=2;" vertex="1" parent="1">
          <mxGeometry x="1360" y="117" width="226" height="54" as="geometry" />
        </mxCell>
        <mxCell id="maTFwBEckjJLN8zS17zf-3" value="Agent Core" style="rhombus;strokeWidth=2;whiteSpace=wrap;" vertex="1" parent="1">
          <mxGeometry x="1406" y="221" width="133" height="133" as="geometry" />
        </mxCell>
        <mxCell id="maTFwBEckjJLN8zS17zf-4" value="Reasoning Engine" style="whiteSpace=wrap;strokeWidth=2;" vertex="1" parent="1">
          <mxGeometry x="1872" y="404" width="183" height="54" as="geometry" />
        </mxCell>
        <mxCell id="maTFwBEckjJLN8zS17zf-5" value="Memory System" style="whiteSpace=wrap;strokeWidth=2;" vertex="1" parent="1">
          <mxGeometry x="1166" y="404" width="171" height="54" as="geometry" />
        </mxCell>
        <mxCell id="maTFwBEckjJLN8zS17zf-6" value="Tool Orchestrator" style="whiteSpace=wrap;strokeWidth=2;" vertex="1" parent="1">
          <mxGeometry x="559" y="508" width="185" height="54" as="geometry" />
        </mxCell>
        <mxCell id="maTFwBEckjJLN8zS17zf-7" value="Tool Registry" style="whiteSpace=wrap;strokeWidth=2;" vertex="1" parent="1">
          <mxGeometry x="95" y="612" width="151" height="54" as="geometry" />
        </mxCell>
        <mxCell id="maTFwBEckjJLN8zS17zf-8" value="Search Tools" style="whiteSpace=wrap;strokeWidth=2;" vertex="1" parent="1">
          <mxGeometry x="296" y="612" width="148" height="54" as="geometry" />
        </mxCell>
        <mxCell id="maTFwBEckjJLN8zS17zf-9" value="Document Analysis" style="whiteSpace=wrap;strokeWidth=2;" vertex="1" parent="1">
          <mxGeometry x="885" y="612" width="193" height="54" as="geometry" />
        </mxCell>
        <mxCell id="maTFwBEckjJLN8zS17zf-10" value="Order Management" style="whiteSpace=wrap;strokeWidth=2;" vertex="1" parent="1">
          <mxGeometry x="1156" y="612" width="196" height="54" as="geometry" />
        </mxCell>
        <mxCell id="maTFwBEckjJLN8zS17zf-11" value="Refund Processing" style="whiteSpace=wrap;strokeWidth=2;" vertex="1" parent="1">
          <mxGeometry x="1653" y="612" width="188" height="54" as="geometry" />
        </mxCell>
        <mxCell id="maTFwBEckjJLN8zS17zf-12" value="search_restaurants" style="whiteSpace=wrap;strokeWidth=2;" vertex="1" parent="1">
          <mxGeometry x="20" y="716" width="196" height="54" as="geometry" />
        </mxCell>
        <mxCell id="maTFwBEckjJLN8zS17zf-13" value="search_food_items_enhanced" style="whiteSpace=wrap;strokeWidth=2;" vertex="1" parent="1">
          <mxGeometry x="266" y="716" width="272" height="54" as="geometry" />
        </mxCell>
        <mxCell id="maTFwBEckjJLN8zS17zf-14" value="get_restaurant_menu" style="whiteSpace=wrap;strokeWidth=2;" vertex="1" parent="1">
          <mxGeometry x="588" y="716" width="214" height="54" as="geometry" />
        </mxCell>
        <mxCell id="maTFwBEckjJLN8zS17zf-15" value="analyze_medical_document" style="whiteSpace=wrap;strokeWidth=2;" vertex="1" parent="1">
          <mxGeometry x="852" y="716" width="259" height="54" as="geometry" />
        </mxCell>
        <mxCell id="maTFwBEckjJLN8zS17zf-16" value="get_order_details" style="whiteSpace=wrap;strokeWidth=2;" vertex="1" parent="1">
          <mxGeometry x="1161" y="716" width="187" height="54" as="geometry" />
        </mxCell>
        <mxCell id="maTFwBEckjJLN8zS17zf-17" value="verify_refund_image" style="whiteSpace=wrap;strokeWidth=2;" vertex="1" parent="1">
          <mxGeometry x="1398" y="716" width="208" height="54" as="geometry" />
        </mxCell>
        <mxCell id="maTFwBEckjJLN8zS17zf-18" value="process_refund_decision" style="whiteSpace=wrap;strokeWidth=2;" vertex="1" parent="1">
          <mxGeometry x="1656" y="716" width="236" height="54" as="geometry" />
        </mxCell>
        <mxCell id="maTFwBEckjJLN8zS17zf-19" value="initiate_refund" style="whiteSpace=wrap;strokeWidth=2;" vertex="1" parent="1">
          <mxGeometry x="1942" y="716" width="168" height="54" as="geometry" />
        </mxCell>
        <mxCell id="maTFwBEckjJLN8zS17zf-20" value="Conversation History" style="whiteSpace=wrap;strokeWidth=2;" vertex="1" parent="1">
          <mxGeometry x="794" y="508" width="208" height="54" as="geometry" />
        </mxCell>
        <mxCell id="maTFwBEckjJLN8zS17zf-21" value="User Preferences" style="whiteSpace=wrap;strokeWidth=2;" vertex="1" parent="1">
          <mxGeometry x="1052" y="508" width="181" height="54" as="geometry" />
        </mxCell>
        <mxCell id="maTFwBEckjJLN8zS17zf-22" value="Session State" style="whiteSpace=wrap;strokeWidth=2;" vertex="1" parent="1">
          <mxGeometry x="1284" y="508" width="154" height="54" as="geometry" />
        </mxCell>
        <mxCell id="maTFwBEckjJLN8zS17zf-23" value="Intent Classification" style="whiteSpace=wrap;strokeWidth=2;" vertex="1" parent="1">
          <mxGeometry x="1487" y="508" width="203" height="54" as="geometry" />
        </mxCell>
        <mxCell id="maTFwBEckjJLN8zS17zf-24" value="Multi-step Planning" style="whiteSpace=wrap;strokeWidth=2;" vertex="1" parent="1">
          <mxGeometry x="1741" y="508" width="198" height="54" as="geometry" />
        </mxCell>
        <mxCell id="maTFwBEckjJLN8zS17zf-25" value="Context Integration" style="whiteSpace=wrap;strokeWidth=2;" vertex="1" parent="1">
          <mxGeometry x="1988" y="508" width="200" height="54" as="geometry" />
        </mxCell>
        <mxCell id="maTFwBEckjJLN8zS17zf-26" value="Response Formatter" style="whiteSpace=wrap;strokeWidth=2;" vertex="1" parent="1">
          <mxGeometry x="2473" y="404" width="203" height="54" as="geometry" />
        </mxCell>
        <mxCell id="maTFwBEckjJLN8zS17zf-27" value="Structured Data" style="whiteSpace=wrap;strokeWidth=2;" vertex="1" parent="1">
          <mxGeometry x="2239" y="508" width="174" height="54" as="geometry" />
        </mxCell>
        <mxCell id="maTFwBEckjJLN8zS17zf-28" value="UI Component Mapping" style="whiteSpace=wrap;strokeWidth=2;" vertex="1" parent="1">
          <mxGeometry x="2462" y="508" width="225" height="54" as="geometry" />
        </mxCell>
        <mxCell id="maTFwBEckjJLN8zS17zf-29" value="" style="curved=1;startArrow=block;endArrow=block;exitX=0.51;exitY=1;entryX=0.5;entryY=0;rounded=0;" edge="1" parent="1" source="maTFwBEckjJLN8zS17zf-1" target="maTFwBEckjJLN8zS17zf-2">
          <mxGeometry relative="1" as="geometry">
            <Array as="points" />
          </mxGeometry>
        </mxCell>
        <mxCell id="maTFwBEckjJLN8zS17zf-30" value="" style="curved=1;startArrow=block;endArrow=block;exitX=0.5;exitY=1;entryX=0.5;entryY=0;rounded=0;" edge="1" parent="1" source="maTFwBEckjJLN8zS17zf-2" target="maTFwBEckjJLN8zS17zf-3">
          <mxGeometry relative="1" as="geometry">
            <Array as="points" />
          </mxGeometry>
        </mxCell>
        <mxCell id="maTFwBEckjJLN8zS17zf-31" value="" style="curved=1;startArrow=block;endArrow=block;exitX=1;exitY=0.59;entryX=0.5;entryY=0;rounded=0;" edge="1" parent="1" source="maTFwBEckjJLN8zS17zf-3" target="maTFwBEckjJLN8zS17zf-4">
          <mxGeometry relative="1" as="geometry">
            <Array as="points">
              <mxPoint x="1964" y="379" />
            </Array>
          </mxGeometry>
        </mxCell>
        <mxCell id="maTFwBEckjJLN8zS17zf-32" value="" style="curved=1;startArrow=block;endArrow=block;exitX=0;exitY=0.71;entryX=0.5;entryY=0;rounded=0;" edge="1" parent="1" source="maTFwBEckjJLN8zS17zf-3" target="maTFwBEckjJLN8zS17zf-5">
          <mxGeometry relative="1" as="geometry">
            <Array as="points">
              <mxPoint x="1252" y="379" />
            </Array>
          </mxGeometry>
        </mxCell>
        <mxCell id="maTFwBEckjJLN8zS17zf-33" value="" style="curved=1;startArrow=block;endArrow=block;exitX=0;exitY=0.55;entryX=0.42;entryY=0;rounded=0;" edge="1" parent="1" source="maTFwBEckjJLN8zS17zf-3" target="maTFwBEckjJLN8zS17zf-6">
          <mxGeometry relative="1" as="geometry">
            <Array as="points">
              <mxPoint x="622" y="379" />
              <mxPoint x="622" y="483" />
            </Array>
          </mxGeometry>
        </mxCell>
        <mxCell id="maTFwBEckjJLN8zS17zf-34" value="" style="curved=1;startArrow=block;endArrow=block;exitX=0;exitY=0.68;entryX=0.5;entryY=0;rounded=0;" edge="1" parent="1" source="maTFwBEckjJLN8zS17zf-6" target="maTFwBEckjJLN8zS17zf-7">
          <mxGeometry relative="1" as="geometry">
            <Array as="points">
              <mxPoint x="170" y="587" />
            </Array>
          </mxGeometry>
        </mxCell>
        <mxCell id="maTFwBEckjJLN8zS17zf-35" value="" style="curved=1;startArrow=block;endArrow=block;exitX=0;exitY=0.82;entryX=0.5;entryY=0;rounded=0;" edge="1" parent="1" source="maTFwBEckjJLN8zS17zf-6" target="maTFwBEckjJLN8zS17zf-8">
          <mxGeometry relative="1" as="geometry">
            <Array as="points">
              <mxPoint x="370" y="587" />
            </Array>
          </mxGeometry>
        </mxCell>
        <mxCell id="maTFwBEckjJLN8zS17zf-36" value="" style="curved=1;startArrow=block;endArrow=block;exitX=1;exitY=0.77;entryX=0.5;entryY=0;rounded=0;" edge="1" parent="1" source="maTFwBEckjJLN8zS17zf-6" target="maTFwBEckjJLN8zS17zf-9">
          <mxGeometry relative="1" as="geometry">
            <Array as="points">
              <mxPoint x="981" y="587" />
            </Array>
          </mxGeometry>
        </mxCell>
        <mxCell id="maTFwBEckjJLN8zS17zf-37" value="" style="curved=1;startArrow=block;endArrow=block;exitX=1;exitY=0.65;entryX=0.5;entryY=0;rounded=0;" edge="1" parent="1" source="maTFwBEckjJLN8zS17zf-6" target="maTFwBEckjJLN8zS17zf-10">
          <mxGeometry relative="1" as="geometry">
            <Array as="points">
              <mxPoint x="1254" y="587" />
            </Array>
          </mxGeometry>
        </mxCell>
        <mxCell id="maTFwBEckjJLN8zS17zf-38" value="" style="curved=1;startArrow=block;endArrow=block;exitX=1;exitY=0.58;entryX=0.5;entryY=0;rounded=0;" edge="1" parent="1" source="maTFwBEckjJLN8zS17zf-6" target="maTFwBEckjJLN8zS17zf-11">
          <mxGeometry relative="1" as="geometry">
            <Array as="points">
              <mxPoint x="1748" y="587" />
            </Array>
          </mxGeometry>
        </mxCell>
        <mxCell id="maTFwBEckjJLN8zS17zf-39" value="" style="curved=1;startArrow=none;endArrow=block;exitX=0;exitY=0.78;entryX=0.5;entryY=0;rounded=0;" edge="1" parent="1" source="maTFwBEckjJLN8zS17zf-8" target="maTFwBEckjJLN8zS17zf-12">
          <mxGeometry relative="1" as="geometry">
            <Array as="points">
              <mxPoint x="118" y="691" />
            </Array>
          </mxGeometry>
        </mxCell>
        <mxCell id="maTFwBEckjJLN8zS17zf-40" value="" style="curved=1;startArrow=none;endArrow=block;exitX=0.61;exitY=1;entryX=0.5;entryY=0;rounded=0;" edge="1" parent="1" source="maTFwBEckjJLN8zS17zf-8" target="maTFwBEckjJLN8zS17zf-13">
          <mxGeometry relative="1" as="geometry">
            <Array as="points">
              <mxPoint x="402" y="691" />
            </Array>
          </mxGeometry>
        </mxCell>
        <mxCell id="maTFwBEckjJLN8zS17zf-41" value="" style="curved=1;startArrow=none;endArrow=block;exitX=1;exitY=0.72;entryX=0.5;entryY=0;rounded=0;" edge="1" parent="1" source="maTFwBEckjJLN8zS17zf-8" target="maTFwBEckjJLN8zS17zf-14">
          <mxGeometry relative="1" as="geometry">
            <Array as="points">
              <mxPoint x="695" y="691" />
            </Array>
          </mxGeometry>
        </mxCell>
        <mxCell id="maTFwBEckjJLN8zS17zf-42" value="" style="curved=1;startArrow=none;endArrow=block;exitX=0.5;exitY=1;entryX=0.5;entryY=0;rounded=0;" edge="1" parent="1" source="maTFwBEckjJLN8zS17zf-9" target="maTFwBEckjJLN8zS17zf-15">
          <mxGeometry relative="1" as="geometry">
            <Array as="points" />
          </mxGeometry>
        </mxCell>
        <mxCell id="maTFwBEckjJLN8zS17zf-43" value="" style="curved=1;startArrow=none;endArrow=block;exitX=0.5;exitY=1;entryX=0.5;entryY=0;rounded=0;" edge="1" parent="1" source="maTFwBEckjJLN8zS17zf-10" target="maTFwBEckjJLN8zS17zf-16">
          <mxGeometry relative="1" as="geometry">
            <Array as="points" />
          </mxGeometry>
        </mxCell>
        <mxCell id="maTFwBEckjJLN8zS17zf-44" value="" style="curved=1;startArrow=none;endArrow=block;exitX=0;exitY=0.87;entryX=0.5;entryY=0;rounded=0;" edge="1" parent="1" source="maTFwBEckjJLN8zS17zf-11" target="maTFwBEckjJLN8zS17zf-17">
          <mxGeometry relative="1" as="geometry">
            <Array as="points">
              <mxPoint x="1502" y="691" />
            </Array>
          </mxGeometry>
        </mxCell>
        <mxCell id="maTFwBEckjJLN8zS17zf-45" value="" style="curved=1;startArrow=none;endArrow=block;exitX=0.58;exitY=1;entryX=0.5;entryY=0;rounded=0;" edge="1" parent="1" source="maTFwBEckjJLN8zS17zf-11" target="maTFwBEckjJLN8zS17zf-18">
          <mxGeometry relative="1" as="geometry">
            <Array as="points">
              <mxPoint x="1774" y="691" />
            </Array>
          </mxGeometry>
        </mxCell>
        <mxCell id="maTFwBEckjJLN8zS17zf-46" value="" style="curved=1;startArrow=none;endArrow=block;exitX=1;exitY=0.83;entryX=0.5;entryY=0;rounded=0;" edge="1" parent="1" source="maTFwBEckjJLN8zS17zf-11" target="maTFwBEckjJLN8zS17zf-19">
          <mxGeometry relative="1" as="geometry">
            <Array as="points">
              <mxPoint x="2026" y="691" />
            </Array>
          </mxGeometry>
        </mxCell>
        <mxCell id="maTFwBEckjJLN8zS17zf-47" value="" style="curved=1;startArrow=none;endArrow=block;exitX=0;exitY=0.73;entryX=0.5;entryY=0;rounded=0;" edge="1" parent="1" source="maTFwBEckjJLN8zS17zf-5" target="maTFwBEckjJLN8zS17zf-20">
          <mxGeometry relative="1" as="geometry">
            <Array as="points">
              <mxPoint x="898" y="483" />
            </Array>
          </mxGeometry>
        </mxCell>
        <mxCell id="maTFwBEckjJLN8zS17zf-48" value="" style="curved=1;startArrow=none;endArrow=block;exitX=0.17;exitY=1;entryX=0.5;entryY=0;rounded=0;" edge="1" parent="1" source="maTFwBEckjJLN8zS17zf-5" target="maTFwBEckjJLN8zS17zf-21">
          <mxGeometry relative="1" as="geometry">
            <Array as="points">
              <mxPoint x="1143" y="483" />
            </Array>
          </mxGeometry>
        </mxCell>
        <mxCell id="maTFwBEckjJLN8zS17zf-49" value="" style="curved=1;startArrow=none;endArrow=block;exitX=0.83;exitY=1;entryX=0.5;entryY=0;rounded=0;" edge="1" parent="1" source="maTFwBEckjJLN8zS17zf-5" target="maTFwBEckjJLN8zS17zf-22">
          <mxGeometry relative="1" as="geometry">
            <Array as="points">
              <mxPoint x="1360" y="483" />
            </Array>
          </mxGeometry>
        </mxCell>
        <mxCell id="maTFwBEckjJLN8zS17zf-50" value="" style="curved=1;startArrow=none;endArrow=block;exitX=0;exitY=0.74;entryX=0.5;entryY=0;rounded=0;" edge="1" parent="1" source="maTFwBEckjJLN8zS17zf-4" target="maTFwBEckjJLN8zS17zf-23">
          <mxGeometry relative="1" as="geometry">
            <Array as="points">
              <mxPoint x="1589" y="483" />
            </Array>
          </mxGeometry>
        </mxCell>
        <mxCell id="maTFwBEckjJLN8zS17zf-51" value="" style="curved=1;startArrow=none;endArrow=block;exitX=0.15;exitY=1;entryX=0.5;entryY=0;rounded=0;" edge="1" parent="1" source="maTFwBEckjJLN8zS17zf-4" target="maTFwBEckjJLN8zS17zf-24">
          <mxGeometry relative="1" as="geometry">
            <Array as="points">
              <mxPoint x="1840" y="483" />
            </Array>
          </mxGeometry>
        </mxCell>
        <mxCell id="maTFwBEckjJLN8zS17zf-52" value="" style="curved=1;startArrow=none;endArrow=block;exitX=0.86;exitY=1;entryX=0.5;entryY=0;rounded=0;" edge="1" parent="1" source="maTFwBEckjJLN8zS17zf-4" target="maTFwBEckjJLN8zS17zf-25">
          <mxGeometry relative="1" as="geometry">
            <Array as="points">
              <mxPoint x="2089" y="483" />
            </Array>
          </mxGeometry>
        </mxCell>
        <mxCell id="maTFwBEckjJLN8zS17zf-53" value="" style="curved=1;startArrow=block;endArrow=block;exitX=1;exitY=0.54;entryX=0.5;entryY=0;rounded=0;" edge="1" parent="1" source="maTFwBEckjJLN8zS17zf-3" target="maTFwBEckjJLN8zS17zf-26">
          <mxGeometry relative="1" as="geometry">
            <Array as="points">
              <mxPoint x="2575" y="379" />
            </Array>
          </mxGeometry>
        </mxCell>
        <mxCell id="maTFwBEckjJLN8zS17zf-54" value="" style="curved=1;startArrow=none;endArrow=block;exitX=0;exitY=0.89;entryX=0.5;entryY=0;rounded=0;" edge="1" parent="1" source="maTFwBEckjJLN8zS17zf-26" target="maTFwBEckjJLN8zS17zf-27">
          <mxGeometry relative="1" as="geometry">
            <Array as="points">
              <mxPoint x="2326" y="483" />
            </Array>
          </mxGeometry>
        </mxCell>
        <mxCell id="maTFwBEckjJLN8zS17zf-55" value="" style="curved=1;startArrow=none;endArrow=block;exitX=0.5;exitY=1;entryX=0.5;entryY=0;rounded=0;" edge="1" parent="1" source="maTFwBEckjJLN8zS17zf-26" target="maTFwBEckjJLN8zS17zf-28">
          <mxGeometry relative="1" as="geometry">
            <Array as="points" />
          </mxGeometry>
        </mxCell>
        <mxCell id="maTFwBEckjJLN8zS17zf-56" value="" style="curved=1;startArrow=none;endArrow=block;exitX=0.53;exitY=0;entryX=0;entryY=0.56;rounded=0;" edge="1" parent="1" source="maTFwBEckjJLN8zS17zf-6" target="maTFwBEckjJLN8zS17zf-3">
          <mxGeometry relative="1" as="geometry">
            <Array as="points">
              <mxPoint x="662" y="483" />
              <mxPoint x="662" y="379" />
            </Array>
          </mxGeometry>
        </mxCell>
        <mxCell id="maTFwBEckjJLN8zS17zf-57" value="" style="curved=1;startArrow=none;endArrow=block;exitX=0;exitY=0.57;entryX=0.47;entryY=0;rounded=0;" edge="1" parent="1" source="maTFwBEckjJLN8zS17zf-4" target="maTFwBEckjJLN8zS17zf-6">
          <mxGeometry relative="1" as="geometry">
            <Array as="points">
              <mxPoint x="642" y="483" />
            </Array>
          </mxGeometry>
        </mxCell>
      </root>
    </mxGraphModel>
  </diagram>
</mxfile>
